<?xml version="1.0" encoding="UTF-8"?>
<svg width="16px" height="16px" viewBox="0 0 16 16" version="1.1" xmlns="http://www.w3.org/2000/svg" xmlns:xlink="http://www.w3.org/1999/xlink">
    <g fill="#828282" stroke="none" fill-rule="evenodd">
        <path d="M8,16 C3.581722,16 0,12.418278 0,8 C0,3.581722 3.581722,0 8,0 C12.418278,0 16,3.581722 16,8 C16,12.418278 12.418278,16 8,16 Z M10.6799927,3.61120605 C7.84450277,3.6299235 6.37874349,3.6299235 6.28271484,3.61120605 C5.7076416,3.7824707 5.34008789,4.11688232 5.08551025,4.93267822 C5.08551025,4.9866333 5.11234538,7.48122152 5.16601562,12.4164429 C8.28531901,12.4164429 9.8449707,12.4164429 9.8449707,12.4164429 C10.336731,12.2792358 10.6799927,12.03125 10.8440552,11.4898071 C10.8543091,11.4898071 10.859436,11.2245483 10.859436,10.6940308 L6.98297119,10.6929321 L6.99377441,8.77539062 L10.3009644,8.77947998 L10.336731,7.15063477 L6.97436523,7.15032959 L6.97436523,5.33026123 L10.6799927,5.33026123 L10.6799927,3.61120605 Z"/>
    </g>
</svg>
