<?xml version="1.0" encoding="UTF-8"?>
<svg width="16px" height="16px" viewBox="0 0 16 16" version="1.1" xmlns="http://www.w3.org/2000/svg" xmlns:xlink="http://www.w3.org/1999/xlink">
  <g stroke="none" fill="#828282" fill-rule="evenodd">
    <path d="M0,1.00087166 C0,0.448105505 0.444630861,0 1.00087166,0 L14.9991283,0 C15.5518945,0 16,0.444630861 16,1.00087166 L16,14.9991283 C16,15.5518945 15.5553691,16 14.9991283,16 L1.00087166,16 C0.448105505,16 0,15.5553691 0,14.9991283 L0,1.00087166 Z M13.5366267,2.47381513 C13.5366267,2.47381513 12.0925561,2.26607234 10.8873757,2.41111996 C9.63619476,2.55552703 8.65280948,3.84466133 8.54671613,4.87973208 C8.53370468,4.87973208 8.55300166,7.33269043 8.55300166,7.33269043 L6.45023145,7.33957649 L6.44971099,9.8530681 L8.53370468,9.86688025 L8.53302409,15.9951925 L11.0755412,15.9998366 L11.0836283,9.86415786 L13.1826353,9.8567113 L13.4921476,7.32880701 L11.0732592,7.32320208 C11.0732592,7.32320208 11.0853499,5.63936048 11.0853499,5.54627857 C11.1760297,4.93962478 11.5618091,4.75606327 11.936739,4.68924447 L13.516529,4.68924447 L13.5366267,2.47381513 Z"></path>
  </g>
</svg>